<?xml version="1.0" encoding="utf-8"?><svg viewBox="0 0 62 62" xmlns="http://www.w3.org/2000/svg" xmlns:xlink="http://www.w3.org/1999/xlink"><style>:root>svg{display:none}:root>svg:target{display:block}</style><svg fill="none" viewBox="0 0 20 20" id="arrow" xmlns="http://www.w3.org/2000/svg"><circle cx="10" cy="10" r="10" fill="#EDEDED"/><path d="M14 9l-4 4-4-4" stroke="#3A4047" stroke-width="2" stroke-linecap="round" stroke-linejoin="round"/></svg><svg fill="none" viewBox="0 0 53 62" id="blank-page" xmlns="http://www.w3.org/2000/svg"><path d="M52.597 16.749H16.75v45.25h35.848V16.75z" fill="#FF4181"/><path d="M47.014 11.166H11.166v45.251h35.848V11.166z" fill="#FF755C"/><path d="M41.431 5.583H5.583v45.251H41.43V5.583z" fill="#FF9356"/><path d="M35.848 45.251H0V0h24.976l10.872 10.872v34.38z" fill="#FFCE47"/><path d="M24.976 0v10.872h10.872L24.976 0z" fill="#FFEBB4"/></svg><svg fill="none" viewBox="0 0 46 62" id="e-reader" xmlns="http://www.w3.org/2000/svg"><path d="M2.386 55.255v5.223c.152.055.314.087.484.087h39.468v-5.31l-19.976-1.436-19.976 1.436z" fill="#9AD7FF"/><path d="M42.338 49.944H2.87c-.17 0-.332.032-.484.087v5.224h39.952v-5.31z" fill="#C2E7FF"/><path d="M6.745 55.255a5.31 5.31 0 00-4.36-5.224c-.552.2-.95.73-.95 1.349v7.75c0 .619.398 1.148.95 1.348a5.31 5.31 0 004.36-5.223z" fill="#4EB9FF"/><path d="M2.153 0A2.153 2.153 0 000 2.153V51.38l10.046-1.436 5.741-24.972L10.047 0H2.152z" fill="#FFC0D5"/><path d="M42.338 2.87L34.301 0H10.046v49.944h30.857l4.305-12.343V10.908l-2.87-8.037z" fill="#FF755C"/><path d="M33.942 25.717h-12.63a1.435 1.435 0 010-2.87h12.63a1.435 1.435 0 010 2.87zM36.239 19.976H19.016a1.435 1.435 0 010-2.87h17.222a1.435 1.435 0 010 2.87z" fill="#FFC0D5"/><path d="M45.208 49.944L34.301 48.51l10.907-10.907v12.342zM45.208 0v10.907L34.301 0h10.907z" fill="#FFCE47"/><path d="M43.773 59.13H2.87v-7.75h40.903a1.435 1.435 0 000-2.87H2.87A2.874 2.874 0 000 51.38v7.75A2.874 2.874 0 002.87 62h40.903a1.435 1.435 0 000-2.87z" fill="#FF4181"/></svg><svg fill="none" viewBox="0 0 13 22" id="facebook-icon" xmlns="http://www.w3.org/2000/svg"><path clip-rule="evenodd" d="M12 1H9a5 5 0 00-5 5v3H1v4h3v8h4v-8h3l1-4H8V6a1 1 0 011-1h3V1z" stroke="#3D76B9" stroke-width="2" stroke-linecap="round" stroke-linejoin="round"/></svg><svg fill="none" viewBox="0 0 22 22" id="phone-icon" xmlns="http://www.w3.org/2000/svg"><path clip-rule="evenodd" d="M20.888 15.92v3a2 2 0 01-2.18 2 19.791 19.791 0 01-8.63-3.07 19.5 19.5 0 01-6-6 19.79 19.79 0 01-3.07-8.67A2 2 0 012.998 1h3a2 2 0 012 1.72c.127.96.362 1.903.7 2.81a2 2 0 01-.45 2.11l-1.27 1.27a16.001 16.001 0 006 6l1.27-1.27a2 2 0 012.11-.45c.907.339 1.85.574 2.81.7a2 2 0 011.72 2.03z" stroke="#3A4047" stroke-width="2" stroke-linecap="round" stroke-linejoin="round"/></svg><svg fill="none" viewBox="0 0 22 22" id="phone-icon-white" xmlns="http://www.w3.org/2000/svg"><path clip-rule="evenodd" d="M20.888 15.92v3a2 2 0 01-2.18 2 19.791 19.791 0 01-8.63-3.07 19.5 19.5 0 01-6-6 19.79 19.79 0 01-3.07-8.67A2 2 0 012.998 1h3a2 2 0 012 1.72c.127.96.362 1.903.7 2.81a2 2 0 01-.45 2.11l-1.27 1.27a16.001 16.001 0 006 6l1.27-1.27a2 2 0 012.11-.45c.907.339 1.85.574 2.81.7a2 2 0 011.72 2.03z" stroke="#fff" stroke-width="2" stroke-linecap="round" stroke-linejoin="round"/></svg><svg fill="none" viewBox="0 0 62 62" id="road-map" xmlns="http://www.w3.org/2000/svg"><path d="M20.666 5.877l4.407 28.061L20.666 62 0 56.123V0l20.666 5.877zM62 5.877V62l-20.667-5.877-2.938-28.061L41.333 0 62 5.877z" fill="#85C250"/><path d="M41.333 0v56.123L20.666 62V5.877L41.333 0z" fill="#C9D467"/><path d="M14.79 54.452c-.133 0-.268-.018-.403-.056L5.475 51.86a1.47 1.47 0 11.804-2.826l8.912 2.535a1.47 1.47 0 01-.401 2.882zM14.79 47.106c-.133 0-.268-.018-.403-.056l-8.912-2.534a1.47 1.47 0 01.804-2.827l8.912 2.535a1.47 1.47 0 01-.401 2.882zM14.79 39.76a1.47 1.47 0 01-.403-.056L5.475 37.17a1.47 1.47 0 01.804-2.827l8.912 2.535a1.47 1.47 0 01-.401 2.882zM5.877 9.017V28.41l8.912 2.535V11.552L5.877 9.017z" fill="#174461"/><path d="M26.542 13.021a1.47 1.47 0 01-.401-2.883l8.913-2.534a1.47 1.47 0 01.804 2.826l-8.913 2.535a1.47 1.47 0 01-.403.056zM26.542 54.452a1.47 1.47 0 01-.401-2.882l8.913-2.535a1.47 1.47 0 01.804 2.827l-8.913 2.534c-.135.038-.27.056-.403.056zM26.542 47.106a1.47 1.47 0 01-.401-2.882l8.913-2.535a1.47 1.47 0 01.804 2.827l-8.913 2.534c-.135.038-.27.056-.403.056zM26.542 39.76a1.47 1.47 0 01-.401-2.882l8.913-2.535a1.47 1.47 0 01.804 2.827l-8.913 2.534a1.47 1.47 0 01-.403.056zM26.542 32.414a1.47 1.47 0 01-.401-2.882l8.913-2.535a1.47 1.47 0 01.804 2.827l-8.913 2.534c-.135.038-.27.056-.403.056z" fill="#fff"/><path d="M56.124 13.021c-.133 0-.268-.018-.403-.056l-8.913-2.535a1.47 1.47 0 01.804-2.826l8.913 2.535a1.47 1.47 0 01-.401 2.882zM56.124 20.367c-.133 0-.268-.018-.403-.056l-8.913-2.535a1.47 1.47 0 01.804-2.826l8.913 2.534a1.47 1.47 0 01-.401 2.883zM56.124 27.713a1.47 1.47 0 01-.403-.056l-8.913-2.535a1.47 1.47 0 01.804-2.826l8.913 2.534a1.47 1.47 0 01-.401 2.883zM47.21 31.055v19.393l8.913 2.535V33.59l-8.913-2.535z" fill="#174461"/></svg><svg fill="none" viewBox="0 0 20 20" id="search-icon" xmlns="http://www.w3.org/2000/svg"><path d="M8.5 16a7.5 7.5 0 100-15 7.5 7.5 0 000 15zM19 19l-5.2-5.2" stroke="#3A4047" stroke-width="2" stroke-linecap="round" stroke-linejoin="round"/></svg><svg fill="none" viewBox="0 0 24 24" id="shopping-cart" xmlns="http://www.w3.org/2000/svg"><path d="M8 23a2 2 0 100-4 2 2 0 000 4zM20 23a2 2 0 100-4 2 2 0 000 4zM5.67 6H23l-1.68 8.39a2 2 0 01-2 1.61H8.75a2 2 0 01-2-1.74L5.23 2.74A2 2 0 003.25 1H1" stroke="#1AB0CE" stroke-width="2" stroke-linecap="round" stroke-linejoin="round"/></svg><svg fill="none" viewBox="0 0 18 20" id="user-icon" xmlns="http://www.w3.org/2000/svg"><path d="M17 19v-2a4 4 0 00-4-4H5a4 4 0 00-4 4v2M9 9a4 4 0 100-8 4 4 0 000 8z" stroke="#3A4047" stroke-width="2" stroke-linecap="round" stroke-linejoin="round"/></svg></svg>